<?xml version="1.0" encoding="utf-8"?>
<!-- Generator: Adobe Illustrator 23.0.0, SVG Export Plug-In . SVG Version: 6.00 Build 0)  -->
<svg version="1.1" id="Layer_1" xmlns="http://www.w3.org/2000/svg" xmlns:xlink="http://www.w3.org/1999/xlink" x="0px" y="0px"
	 viewBox="0 0 53.7 54.5" style="enable-background:new 0 0 53.7 54.5;" xml:space="preserve">
<g>
	<polygon points="37.4,29.6 36.1,27.2 34.6,28 36,30.5 37.5,29.7 	"/>
	<polygon points="32.1,20.3 30.8,17.9 29.3,18.7 30.7,21.2 32.2,20.4 	"/>
	<polygon points="34.8,25 33.4,22.5 32,23.4 33.4,25.9 34.8,25 	"/>
	<polygon points="38.7,31.9 37.3,32.7 38.7,35.2 40.1,34.3 40.1,34.3 	"/>
	<path d="M53.6,31.1l-3.9-6.8c-0.2-0.3-0.4-0.4-0.7-0.4c-0.1,0-0.3,0-0.4,0.1c-0.7,0.4-1.4,0.6-2.2,0.6c-1.5,0-3-0.8-3.8-2.2
		c-0.4-0.7-0.6-1.4-0.6-2.2c0-1.5,0.8-3,2.2-3.9c0.3-0.1,0.4-0.4,0.4-0.7c0-0.1,0-0.3-0.1-0.4L40.4,8c-0.2-0.3-0.4-0.4-0.7-0.4
		c-0.1,0-0.3,0-0.4,0.1L0.4,29.8C0.2,29.9,0,30.2,0,30.5c0,0.1,0,0.3,0.1,0.4l13.2,23.1c0.1,0.3,0.4,0.4,0.7,0.4
		c0.1,0,0.3,0,0.4-0.1l38.8-22.1c0.3-0.2,0.4-0.4,0.4-0.7C53.7,31.4,53.6,31.3,53.6,31.1z M41.3,36.5l-1.5,0.8l0.3,0.5L14.3,52.5
		L2,30.8l25.9-14.7l0.3,0.5l1.5-0.8l0-0.1l-0.2-0.4l3.4-1.9l0,0l1-0.6l5.6-3.2l3.3,5.8c-1.5,1.2-2.4,3-2.4,4.8c0,1,0.3,2,0.8,3
		c1.1,2,3.2,3.1,5.3,3.1c0.8,0,1.5-0.1,2.3-0.4l3.1,5.4L41.6,37L41.3,36.5z"/>
	<polygon points="38.6,4.8 38.5,4.8 36.2,0.6 34.7,1.4 37.1,5.7 	"/>
	<polygon points="41.4,5 42.7,0.4 41.1,0 39.8,4.7 41.4,5.1 	"/>
	<polygon points="43.2,7.3 47.4,4.9 47.4,4.8 46.6,3.5 42.4,5.9 	"/>
	<polygon points="42.9,10.2 47.6,11.4 47.6,11.4 48,9.8 43.4,8.6 	"/>
	<polygon points="36,8.1 36.4,6.6 31.7,5.4 31.3,7 35.9,8.3 	"/>
</g>
</svg>
