<?xml version="1.0" encoding="utf-8"?>
<!-- Generator: Adobe Illustrator 23.0.3, SVG Export Plug-In . SVG Version: 6.00 Build 0)  -->
<svg version="1.1" id="Layer_1" xmlns="http://www.w3.org/2000/svg" xmlns:xlink="http://www.w3.org/1999/xlink" x="0px" y="0px"
	 viewBox="0 0 35.8 38.5" style="enable-background:new 0 0 35.8 38.5;" xml:space="preserve">
<style type="text/css">
	.st0{fill:#FEC214;}
</style>
<path class="st0" d="M17.9,0L17.9,0L8.7,3.3L0,25l12.8,13.5H23L35.8,25L27.1,3.3L17.9,0z M23,33.1l-5.1,2.6l-5.1-2.6l-1.3-3.7l6.4,3
	l6.4-3L23,33.1z M27.9,26.4L25.8,27l-7.9,3.2L10,27l-2.1-0.6l3.6-3.9l-3.8-3.7l2.6-6.1l7.5,3H18l7.5-3l2.6,6.1l-3.8,3.7L27.9,26.4z"
	/>
<rect x="19" y="16.5" transform="matrix(0.9513 -0.3082 0.3082 0.9513 -4.2571 7.6045)" class="st0" width="6" height="1.5"/>
<rect x="13" y="14.3" transform="matrix(0.3078 -0.9514 0.9514 0.3078 -6.8679 25.1093)" class="st0" width="1.5" height="6"/>
<polygon class="st0" points="18.3,22.1 18.3,23.8 19.9,23.8 19.9,23.2 21.2,22.6 20.6,21.2 "/>
<polygon class="st0" points="14.6,22.6 15.9,23.2 15.9,23.8 17.4,23.8 17.4,22.1 15.2,21.2 "/>
</svg>
